<svg xmlns="http://www.w3.org/2000/svg" xmlns:xlink="http://www.w3.org/1999/xlink" width="500" zoomAndPan="magnify" viewBox="0 0 375 374.999991" height="500" preserveAspectRatio="xMidYMid meet" version="1.0"><path fill="#ff66c4" d="M 270.082031 289.605469 C 232.683594 307.949219 176.585938 325.277344 124.242188 315.515625 C 107.105469 312.335938 101.648438 324.539062 91.558594 319.765625 C 66.085938 307.675781 70.144531 268.382812 67.539062 231.640625 C 65.8125 207.101562 76.09375 175.242188 97.675781 160.351562 C 134.085938 154.292969 172.828125 160.820312 209.050781 150.621094 C 213.546875 149.25 257.554688 187.554688 271.398438 235.207031 C 273.347656 241.925781 282.011719 223.113281 278.773438 187.554688 C 274.664062 142.066406 283.164062 120.953125 288.097656 119.636719 C 357.824219 101.265625 317.847656 254.703125 270.082031 289.605469 " fill-opacity="1" fill-rule="nonzero"/><path fill="#ff66c4" d="M 218.976562 84.265625 C 230.1875 89.667969 235.917969 93.78125 239.347656 102.71875 C 242.773438 111.65625 242.691406 121.582031 241.566406 131.097656 C 240.222656 142.339844 237.371094 153.664062 231.203125 163.175781 C 215.246094 187.773438 182.179688 194.242188 152.839844 194.105469 C 128 193.996094 102.554688 190.570312 80.648438 178.859375 C 72.914062 174.722656 65.566406 169.457031 60.464844 162.328125 C 45.523438 141.40625 54.597656 110.808594 72.394531 92.246094 C 70.308594 82.347656 67.238281 71.625 65.15625 61.726562 C 64.9375 60.714844 64.800781 59.507812 65.59375 58.847656 C 66.085938 58.464844 66.746094 58.4375 67.375 58.4375 C 79.332031 58.519531 91.203125 63.179688 100.003906 71.296875 C 122.761719 64.800781 148.152344 63.785156 171.15625 69.269531 C 183.082031 59.125 208.390625 54.296875 224.019531 55.203125 C 225.71875 64.058594 222.539062 75.957031 218.976562 84.265625 Z M 218.976562 84.265625 " fill-opacity="1" fill-rule="nonzero"/><path fill="#424037" d="M 153.746094 199.589844 C 153.445312 199.589844 153.140625 199.589844 152.839844 199.589844 C 122.324219 199.453125 97.867188 194.242188 78.097656 183.6875 C 68.226562 178.421875 61.015625 172.472656 56.023438 165.507812 C 51.9375 159.777344 49.28125 153.222656 48.128906 146.011719 C 47.085938 139.433594 47.304688 132.441406 48.8125 125.257812 C 51.390625 112.917969 57.78125 100.441406 66.472656 90.601562 C 65.566406 86.570312 64.523438 82.375 63.511719 78.289062 C 62.222656 73.160156 60.90625 67.871094 59.835938 62.824219 C 58.902344 58.328125 60.605469 55.859375 62.222656 54.542969 C 64.25 52.898438 66.609375 52.898438 67.484375 52.925781 C 79.742188 53.007812 91.972656 57.449219 101.457031 65.210938 C 124.023438 59.261719 148.125 58.601562 169.921875 63.316406 C 177.546875 57.78125 187.582031 54.542969 195.011719 52.734375 C 205.046875 50.292969 215.765625 49.199219 224.429688 49.691406 C 226.953125 49.828125 229.039062 51.691406 229.503906 54.160156 C 231.285156 63.8125 228.296875 74.917969 225.9375 81.605469 C 235.289062 86.570312 240.964844 91.476562 244.5 100.746094 C 247.738281 109.21875 248.558594 119.0625 247.023438 131.726562 C 245.324219 145.820312 241.675781 157.089844 235.808594 166.113281 C 217.933594 193.722656 181.519531 199.589844 153.746094 199.589844 Z M 71.324219 64.113281 C 72.175781 67.898438 73.160156 71.816406 74.121094 75.628906 C 75.410156 80.757812 76.726562 86.046875 77.796875 91.09375 C 78.179688 92.875 77.628906 94.710938 76.398438 96 C 60.714844 112.398438 51.363281 140.0625 64.964844 159.121094 C 68.9375 164.6875 74.917969 169.539062 83.277344 174.007812 C 101.429688 183.714844 124.214844 188.484375 152.894531 188.621094 C 178.039062 188.730469 211.242188 183.90625 226.597656 160.160156 C 231.53125 152.566406 234.632812 142.832031 236.113281 130.410156 C 237.398438 119.582031 236.796875 111.410156 234.21875 104.664062 C 231.640625 97.949219 227.859375 94.628906 216.589844 89.203125 C 213.929688 87.941406 212.777344 84.789062 213.929688 82.101562 C 216.453125 76.207031 219.003906 67.679688 219.03125 60.550781 C 203.921875 60.769531 184.015625 65.539062 174.75 73.4375 C 173.40625 74.558594 171.621094 75 169.921875 74.585938 C 148.316406 69.433594 124.050781 70.144531 101.539062 76.5625 C 99.703125 77.082031 97.730469 76.617188 96.332031 75.328125 C 89.503906 69.019531 80.566406 65.046875 71.324219 64.113281 Z M 70.503906 60.300781 Z M 70.503906 60.300781 " fill-opacity="1" fill-rule="nonzero"/><path fill="#424037" d="M 99.511719 128.984375 C 98.878906 128.984375 98.25 128.902344 97.589844 128.765625 C 95.207031 128.21875 93.148438 126.601562 91.945312 124.324219 C 90.683594 121.941406 90.492188 119.089844 91.449219 116.648438 C 92.984375 112.699219 97.015625 110.09375 101.511719 110.203125 C 103.898438 110.257812 105.871094 111.820312 106.585938 113.933594 C 108.285156 116.347656 108.914062 119.390625 108.175781 122.1875 C 107.132812 126.246094 103.460938 128.984375 99.511719 128.984375 Z M 99.511719 128.984375 " fill-opacity="1" fill-rule="nonzero"/><path fill="#424037" d="M 180.09375 126.078125 C 177.433594 126.078125 174.941406 125.011719 173.238281 123.035156 C 171.183594 120.679688 170.554688 117.414062 171.511719 114.261719 C 172.472656 111.109375 174.859375 108.777344 177.847656 107.984375 C 178.09375 107.929688 178.367188 107.875 178.613281 107.847656 C 178.972656 107.765625 179.355469 107.683594 179.738281 107.683594 C 182.835938 107.515625 185.796875 109.027344 187.691406 111.710938 C 189.582031 114.398438 189.964844 117.71875 188.757812 120.570312 C 187.554688 123.421875 184.894531 125.449219 181.65625 125.96875 C 181.136719 126.050781 180.617188 126.078125 180.09375 126.078125 Z M 180.09375 126.078125 " fill-opacity="1" fill-rule="nonzero"/><path fill="#424037" d="M 149.878906 136.058594 L 130.355469 136.058594 C 127.339844 136.058594 124.875 133.59375 124.875 130.578125 C 124.875 127.558594 127.339844 125.09375 130.355469 125.09375 L 149.878906 125.09375 C 152.894531 125.09375 155.363281 127.558594 155.363281 130.578125 C 155.363281 133.59375 152.921875 136.058594 149.878906 136.058594 Z M 149.878906 136.058594 " fill-opacity="1" fill-rule="nonzero"/><path fill="#424037" d="M 111.65625 160.820312 C 108.722656 160.820312 105.789062 160.410156 102.964844 159.585938 C 100.058594 158.734375 98.386719 155.691406 99.238281 152.785156 C 100.085938 149.878906 103.128906 148.207031 106.035156 149.058594 C 111.191406 150.566406 117.058594 149.878906 121.71875 147.164062 C 126.382812 144.476562 129.917969 139.734375 131.179688 134.523438 C 131.535156 133.015625 132.523438 131.753906 133.867188 131.015625 C 135.210938 130.273438 136.828125 130.136719 138.28125 130.632812 C 141.1875 131.644531 142.640625 134.03125 143.4375 135.292969 L 143.492188 135.375 C 149.167969 144.695312 161.09375 149.960938 171.8125 147.90625 C 174.777344 147.328125 177.65625 149.277344 178.230469 152.238281 C 178.804688 155.199219 176.859375 158.078125 173.898438 158.652344 C 166.550781 160.078125 158.515625 159.121094 151.332031 155.9375 C 146.179688 153.664062 141.597656 150.316406 137.953125 146.234375 C 135.292969 150.484375 131.589844 154.101562 127.175781 156.625 C 122.460938 159.394531 117.058594 160.820312 111.65625 160.820312 Z M 111.65625 160.820312 " fill-opacity="1" fill-rule="nonzero"/><path fill="#424037" d="M 97.589844 325.222656 C 96.195312 325.222656 94.824219 325.113281 93.480469 324.867188 C 85.71875 323.46875 78.699219 318.09375 74.148438 310.113281 C 70.390625 303.480469 68.773438 296.050781 67.59375 289.003906 C 64.414062 269.972656 63.785156 251.328125 65.675781 233.507812 C 67.761719 214.121094 72.859375 196.164062 80.839844 180.121094 C 82.183594 177.40625 85.472656 176.3125 88.1875 177.65625 C 90.902344 179 92 182.289062 90.65625 185.003906 C 72.53125 221.496094 74.011719 260.707031 78.425781 287.164062 C 79.605469 294.15625 80.949219 299.832031 83.691406 304.6875 C 86.570312 309.757812 90.957031 313.269531 95.425781 314.0625 C 100.855469 315.050781 107.1875 312.199219 111.574219 306.796875 C 116.292969 300.984375 118.511719 293.058594 119.910156 286.78125 C 121.664062 278.941406 122.789062 270.90625 123.253906 262.898438 C 123.421875 259.882812 126.023438 257.582031 129.042969 257.746094 C 132.058594 257.910156 134.386719 260.515625 134.195312 263.53125 C 133.703125 272.140625 132.496094 280.777344 130.605469 289.195312 C 128.929688 296.625 126.246094 306.140625 120.074219 313.734375 C 116.894531 317.628906 112.890625 320.753906 108.476562 322.78125 C 104.941406 324.398438 101.238281 325.222656 97.589844 325.222656 Z M 97.589844 325.222656 " fill-opacity="1" fill-rule="nonzero"/><path fill="#424037" d="M 186.042969 325.414062 C 181.683594 325.414062 177.324219 324.34375 173.488281 322.152344 C 167.097656 318.476562 162.109375 311.953125 158.242188 302.191406 C 152.976562 288.894531 150.8125 274.332031 152.046875 260.074219 C 152.292969 257.058594 154.953125 254.8125 157.96875 255.085938 C 160.984375 255.332031 163.230469 257.992188 162.957031 261.007812 C 161.890625 273.566406 163.78125 286.425781 168.414062 298.132812 C 171.320312 305.480469 174.777344 310.222656 178.941406 312.636719 C 184.453125 315.816406 192.242188 314.75 196.710938 310.195312 C 199.480469 307.371094 201.398438 303.261719 202.90625 296.871094 C 206.582031 281.542969 205.839844 264.847656 200.878906 249.902344 C 199.917969 247.023438 201.480469 243.925781 204.359375 242.964844 C 207.238281 242.007812 210.335938 243.570312 211.296875 246.449219 C 217 263.558594 217.796875 281.902344 213.601562 299.449219 C 212.230469 305.125 209.980469 312.390625 204.550781 317.902344 C 199.726562 322.808594 192.898438 325.414062 186.042969 325.414062 Z M 186.042969 325.414062 " fill-opacity="1" fill-rule="nonzero"/><path fill="#424037" d="M 151.632812 321 C 140.28125 321 129.015625 319.519531 117.9375 316.585938 C 115.003906 315.816406 113.273438 312.800781 114.042969 309.867188 C 114.8125 306.933594 117.828125 305.207031 120.761719 305.976562 C 135.183594 309.8125 149.988281 310.9375 164.824219 309.292969 C 167.839844 308.964844 170.554688 311.128906 170.882812 314.144531 C 171.210938 317.160156 169.046875 319.875 166.027344 320.203125 C 161.230469 320.726562 156.40625 321 151.632812 321 Z M 151.632812 321 " fill-opacity="1" fill-rule="nonzero"/><path fill="#424037" d="M 205.375 319.410156 C 202.769531 319.410156 200.441406 317.546875 199.972656 314.886719 C 199.453125 311.898438 201.453125 309.074219 204.414062 308.523438 C 220.179688 305.753906 234.027344 299.53125 244.417969 290.566406 C 255.90625 280.640625 263.203125 267.175781 264.378906 253.578125 C 265.203125 244.171875 263.339844 233.699219 258.539062 220.621094 C 251.246094 200.824219 240.582031 182.699219 226.84375 166.714844 C 224.871094 164.410156 225.117188 160.957031 227.417969 158.984375 C 229.722656 157.007812 233.175781 157.253906 235.152344 159.558594 C 249.765625 176.53125 261.117188 195.804688 268.847656 216.835938 C 274.25 231.476562 276.308594 243.460938 275.320312 254.535156 C 273.894531 270.960938 265.230469 287.109375 251.601562 298.875 C 239.703125 309.128906 224.046875 316.203125 206.335938 319.328125 C 206.003906 319.382812 205.675781 319.410156 205.375 319.410156 Z M 205.375 319.410156 " fill-opacity="1" fill-rule="nonzero"/><path fill="#424037" d="M 254.152344 296.488281 C 251.4375 296.488281 249.082031 294.457031 248.722656 291.6875 C 248.339844 288.671875 250.480469 285.929688 253.46875 285.574219 C 264.847656 284.148438 276.035156 277.515625 284.945312 266.875 C 292.101562 258.347656 297.804688 247.601562 303.425781 232.054688 C 313.046875 205.375 317.4375 179.519531 316.449219 155.226562 C 316.175781 148.261719 315.351562 140.308594 311.511719 134.25 C 308.523438 129.535156 302.328125 125.421875 296.707031 127.011719 C 292.703125 128.164062 289.113281 132.359375 287.578125 137.761719 C 286.042969 143.1875 286.289062 149.140625 286.535156 155.445312 L 286.5625 156.1875 C 287.382812 176.339844 287.273438 196.765625 286.261719 216.890625 C 285.546875 230.738281 283.492188 244.777344 273.375 253.851562 C 271.125 255.878906 267.644531 255.6875 265.640625 253.414062 C 263.613281 251.164062 263.804688 247.683594 266.082031 245.679688 C 273.566406 238.964844 274.773438 227.007812 275.320312 216.34375 C 276.335938 196.546875 276.445312 176.449219 275.621094 156.652344 L 275.59375 155.910156 C 275.320312 149.003906 275.019531 141.875 277.046875 134.773438 C 279.625 125.667969 286.042969 118.675781 293.71875 116.484375 C 298.789062 115.058594 304.21875 115.632812 309.402344 118.183594 C 313.953125 120.429688 318.011719 124.050781 320.753906 128.410156 C 325.992188 136.664062 327.03125 146.398438 327.386719 154.816406 C 328.429688 180.535156 323.824219 207.789062 313.734375 235.808594 C 309.648438 247.132812 303.644531 261.691406 293.363281 273.976562 C 282.667969 286.726562 269.015625 294.707031 254.867188 296.488281 C 254.589844 296.488281 254.371094 296.488281 254.152344 296.488281 Z M 254.152344 296.488281 " fill-opacity="1" fill-rule="nonzero"/><path fill="#fad02c" d="M 230.082031 79.097656 C 242.472656 57.632812 209.429688 57.632812 221.820312 79.097656 C 209.429688 57.632812 192.910156 86.25 217.691406 86.25 C 192.910156 86.25 209.429688 114.867188 221.820312 93.402344 C 209.429688 114.867188 242.472656 114.867188 230.082031 93.402344 C 242.472656 114.867188 258.992188 86.25 234.210938 86.25 C 258.992188 86.25 242.472656 57.632812 230.082031 79.097656 Z M 230.082031 79.097656 " fill-opacity="1" fill-rule="nonzero"/><path fill="#424037" d="M 231.964844 86.25 C 231.964844 86.644531 231.925781 87.035156 231.851562 87.421875 C 231.773438 87.808594 231.660156 88.1875 231.507812 88.550781 C 231.355469 88.917969 231.171875 89.261719 230.953125 89.589844 C 230.734375 89.917969 230.484375 90.222656 230.203125 90.503906 C 229.925781 90.78125 229.621094 91.03125 229.292969 91.25 C 228.964844 91.46875 228.617188 91.65625 228.253906 91.804688 C 227.886719 91.957031 227.511719 92.070312 227.125 92.148438 C 226.738281 92.226562 226.347656 92.265625 225.953125 92.265625 C 225.554688 92.265625 225.164062 92.226562 224.777344 92.148438 C 224.390625 92.070312 224.015625 91.957031 223.648438 91.804688 C 223.285156 91.65625 222.9375 91.46875 222.609375 91.25 C 222.28125 91.03125 221.976562 90.78125 221.699219 90.503906 C 221.417969 90.222656 221.171875 89.917969 220.949219 89.589844 C 220.730469 89.261719 220.546875 88.917969 220.394531 88.550781 C 220.242188 88.1875 220.128906 87.808594 220.054688 87.421875 C 219.976562 87.035156 219.9375 86.644531 219.9375 86.25 C 219.9375 85.855469 219.976562 85.464844 220.054688 85.078125 C 220.128906 84.6875 220.242188 84.3125 220.394531 83.949219 C 220.546875 83.582031 220.730469 83.238281 220.949219 82.910156 C 221.171875 82.582031 221.417969 82.277344 221.699219 81.996094 C 221.976562 81.71875 222.28125 81.46875 222.609375 81.25 C 222.9375 81.03125 223.285156 80.84375 223.648438 80.695312 C 224.015625 80.542969 224.390625 80.429688 224.777344 80.351562 C 225.164062 80.273438 225.554688 80.234375 225.953125 80.234375 C 226.347656 80.234375 226.738281 80.273438 227.125 80.351562 C 227.511719 80.429688 227.886719 80.542969 228.253906 80.695312 C 228.617188 80.84375 228.964844 81.03125 229.292969 81.25 C 229.621094 81.46875 229.925781 81.71875 230.203125 81.996094 C 230.484375 82.277344 230.734375 82.582031 230.953125 82.910156 C 231.171875 83.238281 231.355469 83.582031 231.507812 83.949219 C 231.660156 84.3125 231.773438 84.6875 231.851562 85.078125 C 231.925781 85.464844 231.964844 85.855469 231.964844 86.25 Z M 231.964844 86.25 " fill-opacity="1" fill-rule="nonzero"/></svg>